<?xml version="1.0" encoding="utf-8"?>
<svg version="1.1" id="granizo" xmlns="http://www.w3.org/2000/svg" xmlns:xlink="http://www.w3.org/1999/xlink" x="0px" y="0px"
	 width="126px" height="126px" viewBox="0 0 126 126" enable-background="new 0 0 126 126" xml:space="preserve">
<g>
	<g>
		<circle fill="#000000" cx="105.49" cy="102.482" r="4.054"/>
		<circle fill="#000000" cx="20.328" cy="112.622" r="4.056"/>
		<path fill="#000000" d="M40.643,82.287c0-2.239-0.211-4.057,2.03-4.057c2.238,0,2.027,1.817,2.027,4.057l-0.043,40.474h-4.054l0,0
			l0,0c0-4.481-3.63-8.113-8.109-8.113v-4.057c3.129,0,5.955,1.219,8.109,3.158L40.643,82.287z"/>
		<path fill="#000000" d="M58.853,102.482c-2.24,0-2.027-1.817-2.027-4.055V82.204c0-2.238-0.213-4.054,2.027-4.054
			s2.028,1.815,2.028,4.054v16.224C60.881,100.665,61.093,102.482,58.853,102.482z"/>
		<path fill="#000000" d="M58.853,110.591c2.24,0,4.056,1.819,4.056,4.057c0,2.244-1.815,4.059-4.056,4.059
			s-4.056-1.814-4.056-4.059C54.797,112.41,56.612,110.591,58.853,110.591z"/>
		<path fill="#000000" d="M75.149,78.23c2.239,0,2.029,1.817,2.029,4.057l-0.077,28.344c3.7-4.938,9.58-8.148,16.222-8.148v4.054
			c-8.956,0-16.222,7.264-16.222,16.225h-4.055c0-0.553,0.04-1.094,0.083-1.636c-0.109-0.678-0.083-1.511-0.083-2.419l0.075-36.419
			C73.122,80.048,72.911,78.23,75.149,78.23z"/>
	</g>
	<g>
		<path fill="#000000" d="M97.833,69.835H14.544c-7.771,0-14.092-6.323-14.092-14.095c0-6.592,4.548-12.145,10.673-13.672
			c2.733-6.833,9.053-11.723,16.425-12.603c0.774-15.86,13.925-28.529,29.978-28.529c11.762,0,22.262,6.917,27.136,17.186
			c4.003-2.188,8.508-3.352,13.169-3.352c15.183,0,27.536,12.349,27.536,27.534C125.369,57.479,113.016,69.835,97.833,69.835
			L97.833,69.835z M14.453,51.366c-2.372,0.053-4.287,1.997-4.287,4.375c0,2.41,1.963,4.373,4.376,4.373h83.291
			c9.824,0,17.813-7.991,17.813-17.81c0-9.822-7.988-17.815-17.813-17.815c-4.602,0-8.969,1.756-12.3,4.938l-6.367,6.082
			l-1.753-8.625c-1.907-9.402-10.275-16.226-19.885-16.226c-11.191,0-20.296,9.101-20.296,20.292c0,0.91,0.067,1.852,0.196,2.81
			l0.913,6.602l-6.565-1.155c-0.619-0.106-1.238-0.162-1.843-0.162c-4.994,0-9.34,3.549-10.323,8.441l-0.812,4.033l-4.112-0.134
			C14.61,51.376,14.532,51.373,14.453,51.366L14.453,51.366z"/>
	</g>
</g>
</svg>
